<svg xmlns="http://www.w3.org/2000/svg" width="31" height="50" viewBox="0 0 31 50">
  <metadata><?xpacket begin="﻿" id="W5M0MpCehiHzreSzNTczkc9d"?>
<x:xmpmeta xmlns:x="adobe:ns:meta/" x:xmptk="Adobe XMP Core 5.6-c142 79.160924, 2017/07/13-01:06:39        ">
   <rdf:RDF xmlns:rdf="http://www.w3.org/1999/02/22-rdf-syntax-ns#">
      <rdf:Description rdf:about=""/>
   </rdf:RDF>
</x:xmpmeta>
                                                                                                    
                                                                                                    
                                                                                                    
                                                                                                    
                                                                                                    
                                                                                                    
                                                                                                    
                                                                                                    
                                                                                                    
                                                                                                    
                                                                                                    
                                                                                                    
                                                                                                    
                                                                                                    
                                                                                                    
                                                                                                    
                                                                                                    
                                                                                                    
                                                                                                    
                                                                                                    
                           
<?xpacket end="w"?></metadata>
<defs>
    <style>
      .cls-1 {
        fill: #8b96f7;
        fill-rule: evenodd;
        opacity: 0.65;
      }
    </style>
  </defs>
  <path id="Ellipse_633_copy_5" data-name="Ellipse 633 copy 5" class="cls-1" d="M15.5,0A15.5,15.5,0,1,1,0,15.5,15.5,15.5,0,0,1,15.5,0Zm0,5A10.5,10.5,0,1,1,5,15.5,10.5,10.5,0,0,1,15.5,5Zm0,7A3.5,3.5,0,1,1,12,15.5,3.5,3.5,0,0,1,15.5,12Zm0,22A13.5,13.5,0,1,1,2,47.5,13.5,13.5,0,0,1,15.5,34Zm0,5A8.5,8.5,0,1,1,7,47.5,8.5,8.5,0,0,1,15.5,39ZM-18,46H67V72H-18V46ZM4.5,44A2.5,2.5,0,1,1,2,46.5,2.5,2.5,0,0,1,4.5,44Zm22,0A2.5,2.5,0,1,1,24,46.5,2.5,2.5,0,0,1,26.5,44Z"/>
</svg>
