<svg xmlns="http://www.w3.org/2000/svg" width="49.812" height="49.938" viewBox="0 0 49.812 49.938">
  <metadata><?xpacket begin="﻿" id="W5M0MpCehiHzreSzNTczkc9d"?>
<x:xmpmeta xmlns:x="adobe:ns:meta/" x:xmptk="Adobe XMP Core 5.6-c142 79.160924, 2017/07/13-01:06:39        ">
   <rdf:RDF xmlns:rdf="http://www.w3.org/1999/02/22-rdf-syntax-ns#">
      <rdf:Description rdf:about=""/>
   </rdf:RDF>
</x:xmpmeta>
                                                                                                    
                                                                                                    
                                                                                                    
                                                                                                    
                                                                                                    
                                                                                                    
                                                                                                    
                                                                                                    
                                                                                                    
                                                                                                    
                                                                                                    
                                                                                                    
                                                                                                    
                                                                                                    
                                                                                                    
                                                                                                    
                                                                                                    
                                                                                                    
                                                                                                    
                                                                                                    
                           
<?xpacket end="w"?></metadata>
<defs>
    <style>
      .cls-1 {
        fill: #8b96f7;
        fill-rule: evenodd;
        opacity: 0.65;
      }
    </style>
  </defs>
  <path id="Rounded_Rectangle_637_copy" data-name="Rounded Rectangle 637 copy" class="cls-1" d="M700.5,51A22.5,22.5,0,1,1,678,73.5,22.5,22.5,0,0,1,700.5,51Zm0,5A17.5,17.5,0,1,1,683,73.5,17.5,17.5,0,0,1,700.5,56Zm0,4a2.5,2.5,0,0,1,2.5,2.5v11a2.5,2.5,0,1,1-5,0v-11A2.5,2.5,0,0,1,700.5,60Zm0,11h8a2.5,2.5,0,0,1,0,5h-8A2.5,2.5,0,0,1,700.5,71ZM683.406,50.768a2.5,2.5,0,0,1,0,3.536l-3.536,3.536a2.5,2.5,0,1,1-3.535-3.536l3.535-3.536A2.5,2.5,0,0,1,683.406,50.768Zm8.962,40.207a2.5,2.5,0,0,1,.916,3.415l-2.5,4.33a2.5,2.5,0,1,1-4.33-2.5l2.5-4.33A2.5,2.5,0,0,1,692.368,90.975Zm16.264,0a2.5,2.5,0,0,0-.915,3.415l2.5,4.33a2.5,2.5,0,0,0,4.33-2.5l-2.5-4.33A2.5,2.5,0,0,0,708.632,90.975Zm8.962-40.207a2.5,2.5,0,0,0,0,3.536l3.535,3.536a2.5,2.5,0,0,0,3.536-3.536l-3.536-3.536A2.5,2.5,0,0,0,717.594,50.768Z" transform="translate(-675.594 -50.031)"/>
</svg>
