<svg xmlns="http://www.w3.org/2000/svg" width="57" height="57" viewBox="0 0 57 57">
  <metadata><?xpacket begin="﻿" id="W5M0MpCehiHzreSzNTczkc9d"?>
<x:xmpmeta xmlns:x="adobe:ns:meta/" x:xmptk="Adobe XMP Core 5.6-c142 79.160924, 2017/07/13-01:06:39        ">
   <rdf:RDF xmlns:rdf="http://www.w3.org/1999/02/22-rdf-syntax-ns#">
      <rdf:Description rdf:about=""/>
   </rdf:RDF>
</x:xmpmeta>
                                                                                                    
                                                                                                    
                                                                                                    
                                                                                                    
                                                                                                    
                                                                                                    
                                                                                                    
                                                                                                    
                                                                                                    
                                                                                                    
                                                                                                    
                                                                                                    
                                                                                                    
                                                                                                    
                                                                                                    
                                                                                                    
                                                                                                    
                                                                                                    
                                                                                                    
                                                                                                    
                           
<?xpacket end="w"?></metadata>
<defs>
    <style>
      .cls-1 {
        fill: #8b96f7;
        fill-rule: evenodd;
        opacity: 0.65;
      }
    </style>
  </defs>
  <path id="Rounded_Rectangle_638_copy_3" data-name="Rounded Rectangle 638 copy 3" class="cls-1" d="M850.5,59A16.5,16.5,0,1,1,834,75.5,16.5,16.5,0,0,1,850.5,59Zm0,5A11.5,11.5,0,1,1,839,75.5,11.5,11.5,0,0,1,850.5,64Zm0-17a2.5,2.5,0,0,1,2.5,2.5v3a2.5,2.5,0,0,1-5,0v-3A2.5,2.5,0,0,1,850.5,47Zm0,49a2.5,2.5,0,0,1,2.5,2.5v3a2.5,2.5,0,1,1-5,0v-3A2.5,2.5,0,0,1,850.5,96Zm20.153-40.653a2.5,2.5,0,0,1,0,3.536L868.531,61A2.5,2.5,0,0,1,865,57.469l2.121-2.121A2.5,2.5,0,0,1,870.652,55.347ZM836,90a2.5,2.5,0,0,1,0,3.535l-2.121,2.121a2.5,2.5,0,0,1-3.536-3.535L832.468,90A2.5,2.5,0,0,1,836,90ZM824.5,73h3a2.5,2.5,0,0,1,0,5h-3A2.5,2.5,0,0,1,824.5,73Zm49,0h3a2.5,2.5,0,0,1,0,5h-3A2.5,2.5,0,0,1,873.5,73ZM833.883,55.347L836,57.469A2.5,2.5,0,1,1,832.468,61l-2.121-2.121A2.5,2.5,0,0,1,833.883,55.347ZM868.531,90l2.121,2.121a2.5,2.5,0,1,1-3.535,3.535L865,93.531A2.5,2.5,0,0,1,868.531,90Z" transform="translate(-822 -47)"/>
</svg>
