<svg xmlns="http://www.w3.org/2000/svg" width="44.62" height="34.5" viewBox="0 0 44.62 34.5">
  <metadata><?xpacket begin="﻿" id="W5M0MpCehiHzreSzNTczkc9d"?>
<x:xmpmeta xmlns:x="adobe:ns:meta/" x:xmptk="Adobe XMP Core 5.6-c142 79.160924, 2017/07/13-01:06:39        ">
   <rdf:RDF xmlns:rdf="http://www.w3.org/1999/02/22-rdf-syntax-ns#">
      <rdf:Description rdf:about=""/>
   </rdf:RDF>
</x:xmpmeta>
                                                                                                    
                                                                                                    
                                                                                                    
                                                                                                    
                                                                                                    
                                                                                                    
                                                                                                    
                                                                                                    
                                                                                                    
                                                                                                    
                                                                                                    
                                                                                                    
                                                                                                    
                                                                                                    
                                                                                                    
                                                                                                    
                                                                                                    
                                                                                                    
                                                                                                    
                                                                                                    
                           
<?xpacket end="w"?></metadata>
<defs>
    <style>
      .cls-1 {
        fill: #8b96f7;
        fill-rule: evenodd;
        opacity: 0.65;
      }
    </style>
  </defs>
  <path id="Wi-Fi" class="cls-1" d="M1247.66,92.25A5.661,5.661,0,1,1,1242,86.5,5.71,5.71,0,0,1,1247.66,92.25Zm15.99-18.468a27.935,27.935,0,0,0-43.3,0,2.908,2.908,0,0,0,.34,4.05,2.8,2.8,0,0,0,3.99-.352,22.34,22.34,0,0,1,34.64,0,2.8,2.8,0,0,0,3.99.352A2.908,2.908,0,0,0,1263.65,73.781Zm-8.66,7.386a16.763,16.763,0,0,0-25.98,0,2.908,2.908,0,0,0,.34,4.051,2.8,2.8,0,0,0,3.99-.352,11.168,11.168,0,0,1,17.32,0,2.8,2.8,0,0,0,2.17,1.026,2.77,2.77,0,0,0,1.81-.674A2.9,2.9,0,0,0,1254.99,81.167Z" transform="translate(-1219.69 -63.5)"/>
</svg>
